<svg width="32" height="32" fill="none" xmlns="http://www.w3.org/2000/svg"><path d="M24.666 24a3.338 3.338 0 00-3.333 3.333 3.338 3.338 0 003.334 3.333A3.338 3.338 0 0028 27.333 3.338 3.338 0 0024.666 24zm0 5.333c-1.102 0-2-.897-2-2 0-1.102.898-2 2-2 1.103 0 2 .898 2 2 0 1.103-.897 2-2 2zM11.333 24A3.338 3.338 0 008 27.333a3.338 3.338 0 003.333 3.333 3.338 3.338 0 003.333-3.333A3.338 3.338 0 0011.333 24zm0 5.333c-1.103 0-2-.897-2-2 0-1.102.897-2 2-2s2 .898 2 2c0 1.103-.897 2-2 2zm17.333-8h-16.72a3.342 3.342 0 01-3.269-2.68L5.32 1.87a.667.667 0 00-.653-.536h-4a.667.667 0 000 1.334H4.12l3.25 16.249a4.68 4.68 0 004.575 3.75h16.721a.667.667 0 000-1.333z" fill="#135DBC"/><path d="M31.837 5.563a.67.67 0 00-.504-.23H6a.667.667 0 000 1.334h24.564l-1.078 7.558a.668.668 0 01-.58.568L7.921 17.337a.668.668 0 00.159 1.326l20.985-2.546a2.005 2.005 0 001.739-1.702l1.189-8.322a.662.662 0 00-.156-.53z" fill="#135DBC"/></svg>