<svg width="32" height="32" fill="none" xmlns="http://www.w3.org/2000/svg"><path d="M28.667 0h-8.458a5.96 5.96 0 00-4.242 1.757l-14.83 14.83A3.86 3.86 0 000 19.336c0 1.036.404 2.01 1.137 2.744l8.783 8.783A3.86 3.86 0 0012.67 32c1.035 0 2.01-.404 2.743-1.137l14.83-14.83A5.96 5.96 0 0032 11.791V3.333A3.338 3.338 0 0028.667 0zm2 11.79a4.635 4.635 0 01-1.366 3.3l-14.83 14.83c-.959.959-2.64.965-3.607 0L2.08 21.136a2.53 2.53 0 01-.747-1.805c0-.68.266-1.32.747-1.802L16.91 2.7a4.639 4.639 0 013.3-1.367h8.457c1.102 0 2 .898 2 2v8.458z" fill="#135DBC"/><path d="M24.667 4a3.338 3.338 0 00-3.334 3.333 3.338 3.338 0 003.334 3.334A3.338 3.338 0 0028 7.333 3.338 3.338 0 0024.667 4zm0 5.333c-1.103 0-2-.897-2-2 0-1.102.897-2 2-2 1.102 0 2 .898 2 2 0 1.103-.898 2-2 2z" fill="#135DBC"/></svg>