<svg width="32" height="32" fill="none" xmlns="http://www.w3.org/2000/svg"><path d="M16 0C7.178 0 0 7.178 0 16s7.178 16 16 16 16-7.178 16-16S24.822 0 16 0zm0 30.609C7.944 30.609 1.391 24.056 1.391 16 1.391 7.944 7.944 1.391 16 1.391c8.056 0 14.609 6.553 14.609 14.609 0 8.056-6.553 14.609-14.609 14.609z" fill="#135DBC"/><path d="M24.348 15.304H7.652a.696.696 0 000 1.392h16.696a.696.696 0 000-1.392z" fill="#135DBC"/><path d="M16 6.957a.696.696 0 00-.696.695v16.696a.696.696 0 001.392 0V7.652A.696.696 0 0016 6.957z" fill="#135DBC"/></svg>