<svg width="32" height="32" fill="none" xmlns="http://www.w3.org/2000/svg"><path d="M28.624 1.97c-.168-.437-.813-.533-1.11-.218a7.323 7.323 0 01-4.846 1.828 7.314 7.314 0 01-6.11-3.281.667.667 0 00-1.111-.002A7.326 7.326 0 019.332 3.58a7.314 7.314 0 01-4.888-1.867.667.667 0 00-1.112.496v14.457c0 8.326 11.84 14.972 12.344 15.25a.662.662 0 00.646.004c.504-.28 12.344-6.927 12.344-15.251v-14.4a.689.689 0 00-.042-.297zm-1.292 14.697c0 6.822-9.452 12.778-11.333 13.896-1.883-1.118-11.333-7.067-11.333-13.896V3.55c1.385.885 3 1.362 4.666 1.362A8.646 8.646 0 0016 1.783a8.65 8.65 0 006.67 3.13 8.66 8.66 0 004.663-1.36v13.114z" fill="#135DBC"/><path d="M20.474 12.196a.667.667 0 00-.943 0l-4.865 4.861-2.192-2.194a.667.667 0 00-.943.942l2.661 2.667a.671.671 0 00.943 0l5.339-5.333a.667.667 0 000-.943z" fill="#135DBC"/></svg>