<svg width="40" height="13" fill="none" xmlns="http://www.w3.org/2000/svg"><path d="M36.457 1.101H34c-.743 0-1.314.229-1.657.971l-4.686 10.686h3.314s.572-1.428.686-1.771h4.057c.115.4.4 1.714.4 1.714h2.972l-2.629-11.6zm-3.886 7.486C32.858 7.9 33.83 5.33 33.83 5.33c0 .057.285-.686.4-1.086l.228 1.029s.629 2.8.743 3.37h-2.629v-.056zm-4.685.343c0 2.4-2.171 4-5.543 4-1.428 0-2.8-.286-3.543-.629l.457-2.628.4.171c1.029.457 1.715.629 2.972.629.914 0 1.886-.343 1.886-1.143 0-.515-.4-.857-1.658-1.429-1.2-.571-2.8-1.486-2.8-3.143 0-2.285 2.229-3.828 5.372-3.828 1.2 0 2.228.228 2.857.514l-.457 2.514-.229-.228a6.14 6.14 0 00-2.4-.457c-1.2.057-1.77.571-1.77 1.027 0 .514.686.914 1.771 1.429 1.829.857 2.686 1.828 2.686 3.2z" fill="#3362AB"/><path d="M0 1.215L.057.987h4.914c.686 0 1.2.228 1.372.971l1.086 5.143C6.343 4.358 3.829 2.13 0 1.215z" fill="#F9B50B"/><path d="M14.343 1.102l-4.972 11.6H6L3.143 2.987c2.057 1.315 3.771 3.372 4.4 4.8l.342 1.2 3.086-7.943h3.372v.058zm1.314-.058H18.8l-2 11.658h-3.143l2-11.658z" fill="#3362AB"/></svg>